<mxfile host="app.diagrams.net" modified="2023-12-10T15:50:36.289Z" agent="Mozilla/5.0 (Windows NT 10.0; Win64; x64) AppleWebKit/537.36 (KHTML, like Gecko) Chrome/119.0.0.0 Safari/537.36" etag="wU7bqcF5e6Xuqfe8urqy" version="22.1.7" type="device">
  <diagram name="Page-1" id="b5b7bab2-c9e2-2cf4-8b2a-24fd1a2a6d21">
    <mxGraphModel dx="5186" dy="5335" grid="1" gridSize="10" guides="1" tooltips="1" connect="1" arrows="1" fold="1" page="1" pageScale="1" pageWidth="3300" pageHeight="4681" background="none" math="0" shadow="0">
      <root>
        <mxCell id="0" />
        <mxCell id="1" parent="0" />
        <mxCell id="6e0c8c40b5770093-68" style="edgeStyle=elbowEdgeStyle;rounded=0;html=1;entryX=0.628;entryY=0.26;entryPerimeter=0;dashed=1;labelBackgroundColor=none;startFill=0;endArrow=open;endFill=0;endSize=10;fontFamily=Verdana;fontSize=10;" parent="1" source="6e0c8c40b5770093-47" target="6e0c8c40b5770093-53" edge="1">
          <mxGeometry relative="1" as="geometry" />
        </mxCell>
        <mxCell id="6e0c8c40b5770093-69" style="edgeStyle=elbowEdgeStyle;rounded=0;html=1;entryX=0.643;entryY=0.246;entryPerimeter=0;dashed=1;labelBackgroundColor=none;startFill=0;endArrow=open;endFill=0;endSize=10;fontFamily=Verdana;fontSize=10;" parent="1" source="6e0c8c40b5770093-47" target="6e0c8c40b5770093-56" edge="1">
          <mxGeometry relative="1" as="geometry" />
        </mxCell>
        <mxCell id="6e0c8c40b5770093-47" value="" style="shape=folder;fontStyle=1;spacingTop=10;tabWidth=123;tabHeight=24;tabPosition=left;html=1;rounded=0;shadow=0;comic=0;labelBackgroundColor=none;strokeWidth=1;fontFamily=Verdana;fontSize=10;align=center;" parent="1" vertex="1">
          <mxGeometry x="553.5" y="774.5" width="332" height="130" as="geometry" />
        </mxCell>
        <mxCell id="6e0c8c40b5770093-49" value="package" style="shape=folder;fontStyle=1;spacingTop=10;tabWidth=50;tabHeight=17;tabPosition=left;html=1;rounded=0;shadow=0;comic=0;labelBackgroundColor=none;strokeWidth=1;fontFamily=Verdana;fontSize=10;align=center;" parent="1" vertex="1">
          <mxGeometry x="571.5" y="814.5" width="112" height="70" as="geometry" />
        </mxCell>
        <mxCell id="6e0c8c40b5770093-50" value="package" style="shape=folder;fontStyle=1;spacingTop=10;tabWidth=50;tabHeight=17;tabPosition=left;html=1;rounded=0;shadow=0;comic=0;labelBackgroundColor=none;strokeWidth=1;fontFamily=Verdana;fontSize=10;align=center;" parent="1" vertex="1">
          <mxGeometry x="740.5" y="814.5" width="112" height="70" as="geometry" />
        </mxCell>
        <mxCell id="6e0c8c40b5770093-52" value="" style="group" parent="1" vertex="1" connectable="0">
          <mxGeometry x="576.5" y="954.5694795496323" width="130" height="70" as="geometry" />
        </mxCell>
        <mxCell id="6e0c8c40b5770093-53" value="package" style="shape=folder;fontStyle=1;spacingTop=10;tabWidth=50;tabHeight=17;tabPosition=left;html=1;rounded=0;shadow=0;comic=0;labelBackgroundColor=none;strokeWidth=1;fontFamily=Verdana;fontSize=10;align=center;" parent="6e0c8c40b5770093-52" vertex="1">
          <mxGeometry width="130" height="70" as="geometry" />
        </mxCell>
        <mxCell id="6e0c8c40b5770093-54" value="" style="triangle;whiteSpace=wrap;html=1;rounded=0;shadow=0;comic=0;labelBackgroundColor=none;strokeWidth=1;fontFamily=Verdana;fontSize=10;align=center;rotation=-90;" parent="6e0c8c40b5770093-52" vertex="1">
          <mxGeometry x="100" y="25" width="15" height="20" as="geometry" />
        </mxCell>
        <mxCell id="6e0c8c40b5770093-55" value="" style="group" parent="1" vertex="1" connectable="0">
          <mxGeometry x="743.5" y="954.5694795496323" width="130" height="70" as="geometry" />
        </mxCell>
        <mxCell id="6e0c8c40b5770093-56" value="package" style="shape=folder;fontStyle=1;spacingTop=10;tabWidth=50;tabHeight=17;tabPosition=left;html=1;rounded=0;shadow=0;comic=0;labelBackgroundColor=none;strokeWidth=1;fontFamily=Verdana;fontSize=10;align=center;" parent="6e0c8c40b5770093-55" vertex="1">
          <mxGeometry width="130" height="70" as="geometry" />
        </mxCell>
        <mxCell id="6e0c8c40b5770093-57" value="" style="triangle;whiteSpace=wrap;html=1;rounded=0;shadow=0;comic=0;labelBackgroundColor=none;strokeWidth=1;fontFamily=Verdana;fontSize=10;align=center;rotation=-90;" parent="6e0c8c40b5770093-55" vertex="1">
          <mxGeometry x="100" y="25" width="15" height="20" as="geometry" />
        </mxCell>
        <mxCell id="UotjoqVTb7CIt51FBD7f-14" value="Sistema de RRHH" style="swimlane;fontStyle=1;align=center;verticalAlign=top;childLayout=stackLayout;horizontal=1;startSize=26;horizontalStack=0;resizeParent=1;resizeParentMax=0;resizeLast=0;collapsible=1;marginBottom=0;whiteSpace=wrap;html=1;" vertex="1" parent="1">
          <mxGeometry x="490" y="-830" width="320" height="288" as="geometry" />
        </mxCell>
        <mxCell id="UotjoqVTb7CIt51FBD7f-15" value="+ registrarEmpleado(empleado: Empleado): void&amp;nbsp;&lt;br&gt;&lt;br&gt;+ actualizarEmpleado(empleado: Empleado, datos: DatosEmpleado): void&lt;br&gt;&amp;nbsp;&lt;br&gt;+ consultarDatosEmpleado(): Lista&amp;lt;Empleado&amp;gt;&amp;nbsp;&lt;br&gt;&lt;br&gt;+ consultarCategorias(): Lista&amp;lt;Categoria&amp;gt;&amp;nbsp;&lt;br&gt;&lt;br&gt;+ registrarDepartamento(departamento: Departamento): void&amp;nbsp;" style="text;strokeColor=none;fillColor=none;align=left;verticalAlign=top;spacingLeft=4;spacingRight=4;overflow=hidden;rotatable=0;points=[[0,0.5],[1,0.5]];portConstraint=eastwest;whiteSpace=wrap;html=1;" vertex="1" parent="UotjoqVTb7CIt51FBD7f-14">
          <mxGeometry y="26" width="320" height="254" as="geometry" />
        </mxCell>
        <mxCell id="UotjoqVTb7CIt51FBD7f-16" value="" style="line;strokeWidth=1;fillColor=none;align=left;verticalAlign=middle;spacingTop=-1;spacingLeft=3;spacingRight=3;rotatable=0;labelPosition=right;points=[];portConstraint=eastwest;strokeColor=inherit;" vertex="1" parent="UotjoqVTb7CIt51FBD7f-14">
          <mxGeometry y="280" width="320" height="8" as="geometry" />
        </mxCell>
        <mxCell id="UotjoqVTb7CIt51FBD7f-19" value="Empleado" style="swimlane;fontStyle=1;align=center;verticalAlign=top;childLayout=stackLayout;horizontal=1;startSize=26;horizontalStack=0;resizeParent=1;resizeParentMax=0;resizeLast=0;collapsible=1;marginBottom=0;whiteSpace=wrap;html=1;" vertex="1" parent="1">
          <mxGeometry x="210" y="-440" width="270" height="320" as="geometry" />
        </mxCell>
        <mxCell id="UotjoqVTb7CIt51FBD7f-20" value="- idEmpleado: int&lt;br&gt;- nombre: String                 &lt;br&gt;- apellido: String  &lt;br&gt;- datosPersonales: DatosPersonales&lt;br&gt;- datosLaborales: DatosLaborales&lt;br&gt;- categoria: Categoria&lt;br&gt;- departamentos: Lista&amp;lt;Departamento&amp;gt;" style="text;strokeColor=none;fillColor=none;align=left;verticalAlign=top;spacingLeft=4;spacingRight=4;overflow=hidden;rotatable=0;points=[[0,0.5],[1,0.5]];portConstraint=eastwest;whiteSpace=wrap;html=1;" vertex="1" parent="UotjoqVTb7CIt51FBD7f-19">
          <mxGeometry y="26" width="270" height="124" as="geometry" />
        </mxCell>
        <mxCell id="UotjoqVTb7CIt51FBD7f-21" value="" style="line;strokeWidth=1;fillColor=none;align=left;verticalAlign=middle;spacingTop=-1;spacingLeft=3;spacingRight=3;rotatable=0;labelPosition=right;points=[];portConstraint=eastwest;strokeColor=inherit;" vertex="1" parent="UotjoqVTb7CIt51FBD7f-19">
          <mxGeometry y="150" width="270" height="8" as="geometry" />
        </mxCell>
        <mxCell id="UotjoqVTb7CIt51FBD7f-22" value="+ obtenerIdEmpleado(): int&lt;br&gt;+ obtenerNombre(): String &lt;br&gt;+ obtenerApellido(): String&amp;nbsp;&lt;br&gt;+ obtenerDatosPersonales(): DatosPersonales&amp;nbsp;&lt;br&gt;+ obtenerDatosLaborales(): DatosLaborales&amp;nbsp;&lt;br&gt;+ obtenerCategoria(): Categoria&amp;nbsp;&lt;br&gt;+ obtenerDepartamentos(): Lista&amp;lt;Departamento&amp;gt;&amp;nbsp;&lt;br&gt;+ actualizarInformacion(datos: DatosEmpleado): void&amp;nbsp;&lt;br&gt;" style="text;strokeColor=none;fillColor=none;align=left;verticalAlign=top;spacingLeft=4;spacingRight=4;overflow=hidden;rotatable=0;points=[[0,0.5],[1,0.5]];portConstraint=eastwest;whiteSpace=wrap;html=1;" vertex="1" parent="UotjoqVTb7CIt51FBD7f-19">
          <mxGeometry y="158" width="270" height="162" as="geometry" />
        </mxCell>
        <mxCell id="UotjoqVTb7CIt51FBD7f-23" value="" style="endArrow=diamondThin;endFill=1;endSize=24;html=1;rounded=0;exitX=0.852;exitY=0;exitDx=0;exitDy=0;exitPerimeter=0;" edge="1" parent="1" source="UotjoqVTb7CIt51FBD7f-19">
          <mxGeometry width="160" relative="1" as="geometry">
            <mxPoint x="430" y="-490" as="sourcePoint" />
            <mxPoint x="610" y="-542" as="targetPoint" />
            <Array as="points">
              <mxPoint x="440" y="-490" />
              <mxPoint x="610" y="-490" />
            </Array>
          </mxGeometry>
        </mxCell>
        <mxCell id="UotjoqVTb7CIt51FBD7f-24" value="&lt;b&gt;Datos personales&lt;/b&gt;" style="swimlane;fontStyle=0;childLayout=stackLayout;horizontal=1;startSize=26;fillColor=none;horizontalStack=0;resizeParent=1;resizeParentMax=0;resizeLast=0;collapsible=1;marginBottom=0;whiteSpace=wrap;html=1;" vertex="1" parent="1">
          <mxGeometry x="683.5" y="-440" width="200" height="140" as="geometry" />
        </mxCell>
        <mxCell id="UotjoqVTb7CIt51FBD7f-25" value="- fechaNacimiento: Date&amp;nbsp;&lt;br&gt;- genero: String&amp;nbsp;&lt;br&gt;- direccion: String&amp;nbsp;&lt;br&gt;- telefono: String&amp;nbsp;&lt;br&gt;- correoElectronico: String " style="text;strokeColor=none;fillColor=none;align=left;verticalAlign=top;spacingLeft=4;spacingRight=4;overflow=hidden;rotatable=0;points=[[0,0.5],[1,0.5]];portConstraint=eastwest;whiteSpace=wrap;html=1;" vertex="1" parent="UotjoqVTb7CIt51FBD7f-24">
          <mxGeometry y="26" width="200" height="114" as="geometry" />
        </mxCell>
        <mxCell id="UotjoqVTb7CIt51FBD7f-30" value="" style="endArrow=block;endSize=16;endFill=0;html=1;rounded=0;entryX=1.009;entryY=0.408;entryDx=0;entryDy=0;entryPerimeter=0;" edge="1" parent="1" target="UotjoqVTb7CIt51FBD7f-20">
          <mxGeometry width="160" relative="1" as="geometry">
            <mxPoint x="680" y="-360" as="sourcePoint" />
            <mxPoint x="650" y="-410" as="targetPoint" />
          </mxGeometry>
        </mxCell>
        <mxCell id="UotjoqVTb7CIt51FBD7f-31" value="&lt;b&gt;DatosLaborales            &lt;/b&gt;" style="swimlane;fontStyle=0;childLayout=stackLayout;horizontal=1;startSize=26;fillColor=none;horizontalStack=0;resizeParent=1;resizeParentMax=0;resizeLast=0;collapsible=1;marginBottom=0;whiteSpace=wrap;html=1;" vertex="1" parent="1">
          <mxGeometry x="920" y="-250" width="180" height="56" as="geometry" />
        </mxCell>
        <mxCell id="UotjoqVTb7CIt51FBD7f-32" value="- fechaContratacion: Date " style="text;strokeColor=none;fillColor=none;align=left;verticalAlign=top;spacingLeft=4;spacingRight=4;overflow=hidden;rotatable=0;points=[[0,0.5],[1,0.5]];portConstraint=eastwest;whiteSpace=wrap;html=1;" vertex="1" parent="UotjoqVTb7CIt51FBD7f-31">
          <mxGeometry y="26" width="180" height="30" as="geometry" />
        </mxCell>
        <mxCell id="UotjoqVTb7CIt51FBD7f-35" value="" style="endArrow=block;endSize=16;endFill=0;html=1;rounded=0;entryX=1.009;entryY=0.382;entryDx=0;entryDy=0;entryPerimeter=0;exitX=0;exitY=0.5;exitDx=0;exitDy=0;" edge="1" parent="1" source="UotjoqVTb7CIt51FBD7f-32" target="UotjoqVTb7CIt51FBD7f-22">
          <mxGeometry width="160" relative="1" as="geometry">
            <mxPoint x="690" y="-350" as="sourcePoint" />
            <mxPoint x="492" y="-353" as="targetPoint" />
            <Array as="points">
              <mxPoint x="700" y="-210" />
            </Array>
          </mxGeometry>
        </mxCell>
        <mxCell id="UotjoqVTb7CIt51FBD7f-36" value="Departamento             " style="swimlane;fontStyle=1;align=center;verticalAlign=top;childLayout=stackLayout;horizontal=1;startSize=26;horizontalStack=0;resizeParent=1;resizeParentMax=0;resizeLast=0;collapsible=1;marginBottom=0;whiteSpace=wrap;html=1;" vertex="1" parent="1">
          <mxGeometry x="728.5" y="-130" width="220" height="130" as="geometry" />
        </mxCell>
        <mxCell id="UotjoqVTb7CIt51FBD7f-37" value="- idDepartamento: int&lt;br&gt;- nombre: String " style="text;strokeColor=none;fillColor=none;align=left;verticalAlign=top;spacingLeft=4;spacingRight=4;overflow=hidden;rotatable=0;points=[[0,0.5],[1,0.5]];portConstraint=eastwest;whiteSpace=wrap;html=1;" vertex="1" parent="UotjoqVTb7CIt51FBD7f-36">
          <mxGeometry y="26" width="220" height="44" as="geometry" />
        </mxCell>
        <mxCell id="UotjoqVTb7CIt51FBD7f-38" value="" style="line;strokeWidth=1;fillColor=none;align=left;verticalAlign=middle;spacingTop=-1;spacingLeft=3;spacingRight=3;rotatable=0;labelPosition=right;points=[];portConstraint=eastwest;strokeColor=inherit;" vertex="1" parent="UotjoqVTb7CIt51FBD7f-36">
          <mxGeometry y="70" width="220" height="8" as="geometry" />
        </mxCell>
        <mxCell id="UotjoqVTb7CIt51FBD7f-39" value="+ obtenerIdDepartamento(): int &lt;br&gt;+ obtenerNombre(): String " style="text;strokeColor=none;fillColor=none;align=left;verticalAlign=top;spacingLeft=4;spacingRight=4;overflow=hidden;rotatable=0;points=[[0,0.5],[1,0.5]];portConstraint=eastwest;whiteSpace=wrap;html=1;" vertex="1" parent="UotjoqVTb7CIt51FBD7f-36">
          <mxGeometry y="78" width="220" height="52" as="geometry" />
        </mxCell>
        <mxCell id="UotjoqVTb7CIt51FBD7f-40" value="Categoria" style="swimlane;fontStyle=1;align=center;verticalAlign=top;childLayout=stackLayout;horizontal=1;startSize=30;horizontalStack=0;resizeParent=1;resizeParentMax=0;resizeLast=0;collapsible=1;marginBottom=0;whiteSpace=wrap;html=1;" vertex="1" parent="1">
          <mxGeometry x="-130" y="-520" width="200" height="144" as="geometry">
            <mxRectangle x="340" y="-30" width="100" height="30" as="alternateBounds" />
          </mxGeometry>
        </mxCell>
        <mxCell id="UotjoqVTb7CIt51FBD7f-41" value="- idCategoria: int &lt;br&gt;- nombre: String " style="text;strokeColor=none;fillColor=none;align=left;verticalAlign=top;spacingLeft=4;spacingRight=4;overflow=hidden;rotatable=0;points=[[0,0.5],[1,0.5]];portConstraint=eastwest;whiteSpace=wrap;html=1;" vertex="1" parent="UotjoqVTb7CIt51FBD7f-40">
          <mxGeometry y="30" width="200" height="54" as="geometry" />
        </mxCell>
        <mxCell id="UotjoqVTb7CIt51FBD7f-42" value="" style="line;strokeWidth=1;fillColor=none;align=left;verticalAlign=middle;spacingTop=-1;spacingLeft=3;spacingRight=3;rotatable=0;labelPosition=right;points=[];portConstraint=eastwest;strokeColor=inherit;" vertex="1" parent="UotjoqVTb7CIt51FBD7f-40">
          <mxGeometry y="84" width="200" height="8" as="geometry" />
        </mxCell>
        <mxCell id="UotjoqVTb7CIt51FBD7f-43" value="+ obtenerIdCategoria(): int&lt;br&gt;+ obtenerNombre(): String  " style="text;strokeColor=none;fillColor=none;align=left;verticalAlign=top;spacingLeft=4;spacingRight=4;overflow=hidden;rotatable=0;points=[[0,0.5],[1,0.5]];portConstraint=eastwest;whiteSpace=wrap;html=1;" vertex="1" parent="UotjoqVTb7CIt51FBD7f-40">
          <mxGeometry y="92" width="200" height="52" as="geometry" />
        </mxCell>
        <mxCell id="UotjoqVTb7CIt51FBD7f-44" value="" style="line;strokeWidth=1;fillColor=none;align=left;verticalAlign=middle;spacingTop=-1;spacingLeft=3;spacingRight=3;rotatable=0;labelPosition=right;points=[];portConstraint=eastwest;strokeColor=inherit;" vertex="1" parent="1">
          <mxGeometry x="480" y="-130" width="248.5" height="8" as="geometry" />
        </mxCell>
        <mxCell id="UotjoqVTb7CIt51FBD7f-47" value="" style="line;strokeWidth=1;fillColor=none;align=left;verticalAlign=middle;spacingTop=-1;spacingLeft=3;spacingRight=3;rotatable=0;labelPosition=right;points=[];portConstraint=eastwest;strokeColor=inherit;" vertex="1" parent="1">
          <mxGeometry x="70" y="-430" width="140" height="10" as="geometry" />
        </mxCell>
      </root>
    </mxGraphModel>
  </diagram>
</mxfile>
